# xmcd
#
# Track frame offsets: 
#        150
#        11052
#        21810
#        34174
#        46324
#        58021
#        71501
#        84485
#        93952
#        103008
#        114520
#        126000
#        138141
#        148085
#        160338
#        171096
#        181853
#        192803
#        204252
#        215334
#
# Disc length: 2998 seconds
#
# Revision: 2
# Processed by: cddbd v1.5.2PL0 Copyright (c) Steve Scherf et al.
# Submitted via: ExactAudioCopyFreeDBPlugin 1.0
#
DISCID=0e0bb414
DTITLE=Various Artist - Rhythm and Blues:  Original Masters [Documents]
DYEAR=2005
DGENRE=Rhythm and Blues
TTITLE0=Joe Turner - Mad Blues
TTITLE1=King Porter - Chitlin' Ball
TTITLE2=Johnny Otis - Goomp Blues
TTITLE3=Pearl Reaves - You Can't Stay Here
TTITLE4=Big Mama Thornton - You Did Me Wrong
TTITLE5=Honey Brown - Rockin' and Jumpin'
TTITLE6=Joe Turner - Sally Zu Zazz
TTITLE7=Sheri Washington - Ain't Talkin' to Your Baby
TTITLE8=Peppermint Harris - The Blues Pick on Me
TTITLE9=Tony Grimes - Hey Now
TTITLE10=Paul Bascomb - Mumbles Blues
TTITLE11=Floyd Dixon - Wine Wine Wine
TTITLE12=Floyd Dixon - Ooh Littel Girl
TTITLE13=Jimmy McCracklin - She Felt Too Good
TTITLE14=Charlie and Ray - Oh Gee Oh Wee
TTITLE15=Gene and Eunice - I Gotte Go Home
TTITLE16=Jimmy McCracklin - I Wanna Make Love to You
TTITLE17=Jewel King - 3 x 7 =21
TTITLE18=G A S - Seven to Eleven
TTITLE19=H- Bomb Ferguson - Rock H-Bomb Rock
EXTD=
EXTT0=
EXTT1=
EXTT2=
EXTT3=
EXTT4=
EXTT5=
EXTT6=
EXTT7=
EXTT8=
EXTT9=
EXTT10=
EXTT11=
EXTT12=
EXTT13=
EXTT14=
EXTT15=
EXTT16=
EXTT17=
EXTT18=
EXTT19=
PLAYORDER=
